<svg width="109" height="17" viewBox="0 0 109 17" fill="none" xmlns="http://www.w3.org/2000/svg">
  <g clip-path="url(#clip0_565_4517)">
  <path d="M47.623 8.21057V8.08417C47.623 4.90614 49.8621 2.82959 52.8776 2.82959C55.5501 2.82959 57.3919 4.05747 57.6627 6.78407H54.6292C54.5028 5.73677 53.943 5.15894 52.8957 5.15894C51.5775 5.15894 50.7469 6.20625 50.7469 8.06612V8.19252C50.7469 10.0343 51.5234 11.0997 52.9499 11.0997C53.9972 11.0997 54.7194 10.558 54.8639 9.42039H57.7891C57.5725 12.0748 55.6584 13.4652 53.004 13.4652C49.3926 13.429 47.623 11.3525 47.623 8.21057Z" fill="white"/>
  <path d="M58.4932 9.60091V9.47451C58.4932 7.05487 60.2989 5.53809 62.6102 5.53809C64.9215 5.53809 66.7091 7.03682 66.7091 9.40228V9.52868C66.7091 11.9664 64.9034 13.429 62.5921 13.429C60.2808 13.429 58.4932 12.0386 58.4932 9.60091ZM64.0908 9.56479V9.4384C64.0908 8.19246 63.5852 7.47018 62.5921 7.47018C61.617 7.47018 61.0934 8.15635 61.0934 9.40228V9.52868C61.0934 10.8288 61.599 11.5149 62.5921 11.5149C63.5672 11.5511 64.0908 10.8107 64.0908 9.56479Z" fill="white"/>
  <path d="M67.8286 5.75477H70.4107V6.96459C70.808 6.18814 71.6386 5.53809 72.8665 5.53809C74.3111 5.53809 75.3222 6.44094 75.3222 8.37303V13.2484H72.7401V8.89669C72.7401 8.04801 72.4151 7.65075 71.6567 7.65075C70.8983 7.65075 70.3746 8.10218 70.3746 9.07726V13.2845H67.7925V5.75477H67.8286Z" fill="white"/>
  <path d="M76.5503 5.75477H79.1324V6.96459C79.5297 6.18814 80.3603 5.53809 81.5882 5.53809C83.0327 5.53809 84.0439 6.44094 84.0439 8.37303V13.2484H81.4618V8.89669C81.4618 8.04801 81.1368 7.65075 80.3784 7.65075C79.62 7.65075 79.0963 8.10218 79.0963 9.07726V13.2845H76.5142V5.75477H76.5503Z" fill="white"/>
  <path d="M85.1094 9.60091V9.47451C85.1094 7.05487 86.9151 5.53809 89.1722 5.53809C91.2307 5.53809 93.0003 6.72985 93.0003 9.42034V10.1065H87.7276C87.7999 11.0996 88.3596 11.6594 89.2805 11.6594C90.1292 11.6594 90.4904 11.2802 90.5806 10.7566H93.0003C92.7655 12.4539 91.4654 13.4109 89.1903 13.4109C86.8428 13.429 85.1094 12.0567 85.1094 9.60091ZM90.5084 8.66194C90.4542 7.7591 90.0028 7.23544 89.1903 7.23544C88.4138 7.23544 87.8902 7.74104 87.7457 8.66194H90.5084Z" fill="white"/>
  <path d="M93.7041 9.60091V9.47451C93.7041 6.96459 95.5098 5.53809 97.6947 5.53809C99.5365 5.53809 101.216 6.35065 101.36 8.64389H98.9406C98.8142 7.93967 98.4892 7.56047 97.7308 7.56047C96.828 7.56047 96.2863 8.19246 96.2863 9.47451V9.60091C96.2863 10.901 96.7919 11.5872 97.785 11.5872C98.4892 11.5872 99.0129 11.1538 99.0851 10.3412H101.396C101.324 12.2372 100.042 13.4651 97.6044 13.4651C95.4195 13.429 93.7041 12.1289 93.7041 9.60091Z" fill="white"/>
  <path d="M102.823 10.8647V7.52416H101.92V5.77263H102.823V4.21973H105.405V5.77263H106.904V7.52416H105.405V10.63C105.405 11.1717 105.694 11.4064 106.164 11.4064C106.453 11.4064 106.669 11.3522 106.904 11.28V13.2482C106.579 13.3385 106.074 13.4649 105.478 13.4649C103.78 13.4288 102.823 12.6343 102.823 10.8647Z" fill="white"/>
  <path d="M0.963379 8.37269V8.24629C0.963379 5.08632 3.20245 3.00977 6.21796 3.00977C8.8904 3.00977 10.7322 4.23764 11.0031 6.96425H7.95143C7.82504 5.91694 7.26527 5.33912 6.21796 5.33912C4.8998 5.33912 4.06918 6.38642 4.06918 8.24629V8.37269C4.06918 10.2145 4.84563 11.2799 6.27213 11.2799C7.31944 11.2799 8.04172 10.7382 8.18617 9.60057H11.1114C10.8947 12.2369 8.98068 13.6273 6.3263 13.6273C2.73296 13.6273 0.963379 11.5146 0.963379 8.37269Z" fill="white"/>
  <path d="M12.4116 3.17236H16.1494C19.7969 3.17236 21.6568 4.99612 21.6568 8.19221V8.31861C21.6568 11.5147 19.7608 13.4468 16.1494 13.4468H12.4477L12.4116 3.17236ZM16.0411 11.1716C17.7926 11.1716 18.5691 10.2507 18.5691 8.33666V8.21026C18.5691 6.24205 17.7926 5.41143 16.005 5.41143H15.373V11.1355L16.0411 11.1716Z" fill="white"/>
  <path d="M23.083 3.17236H26.0444V11.1716H29.9266V13.4648H23.083V3.17236Z" fill="white"/>
  <path d="M34.0621 12.0565C34.5316 12.526 35.2899 12.526 35.7414 12.0565L42.8378 4.96012C43.3073 4.49064 43.3073 3.73225 42.8378 3.28082C42.3683 2.81134 41.6099 2.81134 41.1585 3.28082L34.0621 10.3772C33.5926 10.8286 33.5926 11.587 34.0621 12.0565Z" fill="#2E5FF6"/>
  <path d="M32.3829 7.47012C32.8524 7.9396 33.6107 7.9396 34.0622 7.47012L36.4276 5.10465C36.8971 4.63517 36.8971 3.87678 36.4276 3.42535C35.9582 2.95587 35.1998 2.95587 34.7483 3.42535L32.3829 5.79082C31.9134 6.2603 31.9134 7.01869 32.3829 7.47012Z" fill="#278254"/>
  <path d="M38.6124 13.7176C39.0818 14.187 39.8402 14.187 40.2917 13.7176L44.7698 9.23942C45.2393 8.76994 45.2393 8.01154 44.7698 7.56012C44.3003 7.09064 43.5419 7.09064 43.0905 7.56012L38.6124 12.0383C38.1429 12.4897 38.1429 13.2481 38.6124 13.7176Z" fill="#DF2C19"/>
  </g>
  <defs>
  <clipPath id="clip0_565_4517">
  <rect width="107.429" height="16" fill="white" transform="translate(0.846191 0.5)"/>
  </clipPath>
  </defs>
</svg>