<?xml version="1.0" encoding="UTF-8" ?>
<svg
  id="Layer_1"
  xmlns="http://www.w3.org/2000/svg"
  viewBox="0 0 365.9 67.71"
><defs><style>.cls-1{stroke-width:0px;}</style></defs><path
    class="cls-1"
    d="m34.15,66.96c-5.6,0-10.5-.8-14.7-2.3-4.2-1.6-7.7-3.8-10.4-6.6-2.8-2.9-4.9-6.3-6.3-10.4-1.4-4-2.1-8.5-2.1-13.4v-.7c0-4.9.8-9.4,2.5-13.4,1.6-4,3.9-7.5,6.9-10.4,2.9-2.9,6.4-5.1,10.4-6.7S28.85.76,33.45.76c4.2,0,8,.5,11.5,1.5s6.5,2.5,9.2,4.4c2.6,2,4.7,4.6,6.2,7.7,1.6,3.1,2.6,6.8,2.9,11.1h-19c-.4-3.3-1.4-5.8-3.2-7.5s-4.3-2.6-7.5-2.6c-4.1,0-7.4,1.6-9.8,4.7-2.4,3.1-3.6,7.6-3.6,13.5v.7c0,5.8,1.2,10.3,3.5,13.4,2.4,3.1,5.8,4.7,10.2,4.7,3.2,0,5.9-.9,8-2.6,2.1-1.7,3.4-4.4,3.9-8h18.3c-.3,4.1-1.3,7.8-2.9,11s-3.7,5.8-6.3,7.9c-2.6,2.1-5.7,3.7-9.3,4.8-3.4.9-7.3,1.5-11.4,1.5"
  /><path
    class="cls-1"
    d="m93.85,51.66c5.5,0,9.5-1.4,12-4.4,2.5-2.9,3.8-7.4,3.8-13.3v-.7c0-6.2-1.3-10.6-3.8-13.3-2.5-2.7-6.6-4.1-12.2-4.1h-4v35.8h4.2ZM71.05,1.56h23.4c11.4,0,20,2.7,25.7,8.2,5.8,5.5,8.7,13.2,8.7,23.1v.7c0,5-.7,9.5-2.2,13.5s-3.6,7.3-6.5,10.1-6.6,5-10.9,6.4c-4.3,1.5-9.3,2.2-14.9,2.2h-23.3V1.56h0Z"
  /><polygon
    class="cls-1"
    points="136.75 1.56 136.75 65.86 179.55 65.86 179.55 51.66 155.25 51.66 155.25 1.56 136.75 1.56"
  /><polygon
    class="cls-1"
    points="187.35 1.56 187.35 65.86 230.15 65.86 230.15 51.66 205.85 51.66 205.85 1.56 187.35 1.56"
  /><rect
    class="cls-1"
    x="238.25"
    y="1.56"
    width="18.6"
    height="64.2"
  /><polygon
    class="cls-1"
    points="268.45 1.56 268.45 65.86 286.95 65.86 286.95 43.06 306.85 43.06 306.85 29.56 286.95 29.56 286.95 15.76 311.85 15.76 311.85 1.56 268.45 1.56"
  /><polygon
    class="cls-1"
    points="319.45 1.56 319.45 65.86 365.25 65.86 365.25 51.66 337.75 51.66 337.75 39.96 358.55 39.96 358.55 26.86 337.75 26.86 337.75 15.76 363.85 15.76 363.85 1.56 319.45 1.56"
  /></svg>
