<svg width="61" height="15" viewBox="0 0 61 15" fill="none" xmlns="http://www.w3.org/2000/svg">
  <g clip-path="url(#clip0_565_4508)">
  <path d="M5.80052 13.1247C4.87535 13.1247 4.05297 12.9925 3.36276 12.7429C2.67255 12.4785 2.09982 12.1114 1.64458 11.6415C1.17465 11.1715 0.836888 10.5988 0.601923 9.92328C0.366958 9.24775 0.26416 8.51349 0.26416 7.70579V7.58831C0.26416 6.78062 0.396328 6.03167 0.675349 5.37083C0.95437 4.69531 1.3215 4.13726 1.80612 3.65265C2.29073 3.18272 2.86346 2.81558 3.5243 2.55125C4.18514 2.28691 4.90472 2.16943 5.68304 2.16943C6.37325 2.16943 7.00472 2.25754 7.59213 2.41908C8.16486 2.58062 8.67885 2.83027 9.10472 3.15335C9.53059 3.49111 9.86836 3.91699 10.1327 4.43097C10.397 4.94496 10.5586 5.56174 10.6173 6.25195H7.48934C7.43059 5.70859 7.25437 5.2974 6.96066 5.0037C6.66696 4.70999 6.24108 4.57782 5.71241 4.57782C5.0222 4.57782 4.49353 4.84216 4.08234 5.35614C3.68584 5.87013 3.48024 6.61908 3.48024 7.58831V7.70579C3.48024 8.66034 3.67115 9.40929 4.06766 9.92328C4.46416 10.4373 5.0222 10.7016 5.75647 10.7016C6.28514 10.7016 6.74038 10.5547 7.09283 10.2757C7.44528 9.9967 7.66556 9.55614 7.73899 8.95405H10.7642C10.7201 9.64426 10.5586 10.2464 10.2942 10.7603C10.0299 11.289 9.67745 11.7149 9.25157 12.0673C8.81101 12.4198 8.31171 12.6841 7.7243 12.8603C7.10752 13.0366 6.47605 13.1247 5.80052 13.1247Z" fill="white"/>
  <path d="M15.6545 10.5989C16.565 10.5989 17.2258 10.3639 17.6517 9.87931C18.0629 9.39469 18.2684 8.66043 18.2684 7.67651V7.55903C18.2684 6.54574 18.0629 5.79679 17.6517 5.35623C17.2405 4.90099 16.5649 4.6807 15.6251 4.6807H14.9496V10.6136H15.6545V10.5989ZM11.895 2.33105H15.7573C17.637 2.33105 19.0615 2.7863 20.016 3.69679C20.9705 4.60728 21.4552 5.8849 21.4552 7.52966V7.64714C21.4552 8.4842 21.3377 9.21847 21.088 9.87931C20.8384 10.5401 20.4859 11.0835 20.016 11.5387C19.5314 12.0087 18.9293 12.3611 18.2244 12.5961C17.5048 12.8457 16.6824 12.9632 15.7573 12.9632H11.895V2.33105Z" fill="white"/>
  <path d="M22.7622 2.33105V12.9485H29.8405V10.5989H25.8168V2.33105H22.7622Z" fill="white"/>
  <path d="M31.1328 2.33105V12.9485H38.1965V10.5989H34.1874V2.33105H31.1328Z" fill="white"/>
  <path d="M42.6166 2.33105H39.5474V12.9485H42.6166V2.33105Z" fill="white"/>
  <path d="M44.5405 2.33105V12.9485H47.6098V9.1891H50.8846V6.94225H47.6098V4.68071H51.7217V2.33105H44.5405Z" fill="white"/>
  <path d="M52.9697 2.33105V12.9485H60.5473V10.5989H55.9949V8.67511H59.4313V6.50169H55.9949V4.68071H60.3124V2.33105H52.9697Z" fill="white"/>
  </g>
  <defs>
  <clipPath id="clip0_565_4508">
  <rect width="60.8462" height="14" fill="white" transform="translate(0 0.5)"/>
  </clipPath>
  </defs>
</svg>
        