<?xml version="1.0" encoding="UTF-8"?>
<svg id="Layer_1" data-name="Layer 1" xmlns="http://www.w3.org/2000/svg" version="1.1" viewBox="0 0 490.2 107.6">
  <defs>
    <style>
      .cls-1 {
        fill: #fff;
        stroke-width: 0px;
      }
    </style>
  </defs>
  <g>
    <rect class="cls-1" x="11" y=".8" width="5.6" height="54.5"/>
    <rect class="cls-1" x="22.7" y=".8" width="5.7" height="44.9"/>
    <rect class="cls-1" x="34.4" y=".8" width="5.6" height="54.5"/>
  </g>
  <polygon class="cls-1" points="35.3 89 41.3 107.5 25.5 96 9.7 107.5 15.8 89 0 77.5 19.5 77.5 25.5 59 31.5 77.5 51 77.5 35.3 89"/>
  <g>
    <g>
      <path class="cls-1" d="M81.2,77.6h5.5v29.4h-5.5v-29.4Z"/>
      <path class="cls-1" d="M97.8,77.6h6.5l12.4,21.3v-21.3h5v29.4h-5.7l-13.3-22.6v22.6h-5v-29.4Z"/>
      <path class="cls-1" d="M152.4,82h-8.2v-4.3h21.9v4.3h-8.2v25.1h-5.5v-25.1Z"/>
      <path class="cls-1" d="M174.6,77.6h9.9c6.5,0,11,2.6,11,8.6v.2c0,4.6-2.9,7-6.5,7.9l8.3,12.7h-5.9l-7.7-11.9h-3.5v11.9h-5.5v-29.4ZM184.5,91.3c3.7,0,5.6-1.6,5.6-4.7v-.2c0-3.4-2.1-4.5-5.6-4.5h-4.4v9.4h4.4Z"/>
      <path class="cls-1" d="M205.1,95.9v-18.2h5.5v17.8c0,5.4,1.7,7.6,6.1,7.6s6.4-1.9,6.4-8v-17.5h5.5v17.9c0,7.7-4.2,11.9-11.9,11.9s-11.6-4-11.6-11.6Z"/>
      <path class="cls-1" d="M237.8,92.5v-.3c0-8.9,6.1-15,14.3-15s12,3.4,12.6,10.3h-5.6c-.6-3.9-2.8-5.9-7-5.9s-8.6,4-8.6,10.6v.3c0,6.6,3.2,10.5,8.6,10.5s7-2.1,7.5-6.2h5.4c-.9,7.1-5.9,10.7-12.9,10.7s-14.4-5.9-14.4-15Z"/>
      <path class="cls-1" d="M273.9,77.6h5.5v13.3l11.3-13.3h5.9l-12.2,14,12.8,15.4h-6.5l-11.3-13.8v13.8h-5.5v-29.4Z"/>
      <path class="cls-1" d="M305.3,77.6h5.5v29.4h-5.5v-29.4Z"/>
      <path class="cls-1" d="M321.9,77.6h6.5l12.4,21.3v-21.3h5v29.4h-5.7l-13.3-22.6v22.6h-5v-29.4Z"/>
      <path class="cls-1" d="M355.3,92.5v-.3c0-8.8,6.1-15,14.7-15s11.9,2.9,12.7,9.9h-5.5c-.7-3.9-3.3-5.6-7.1-5.6-5.8,0-9.1,4.3-9.1,10.7v.3c0,6.3,2.9,10.6,9.1,10.6s7.8-3.3,7.9-7.4h-7.4v-4.1h12.8v2.7c0,8.2-5.1,13.1-13.4,13.1s-14.7-6.3-14.7-15Z"/>
    </g>
    <g>
      <path class="cls-1" d="M65.4.8h13l13,41.9L104.4.8h11.6l-18.2,54.5h-14.2L65.4.8Z"/>
      <path class="cls-1" d="M127.1.8h35.5v9.6h-23.3v12.7h18.6v9h-18.6v13.6h24.5v9.6h-36.8V.8Z"/>
      <path class="cls-1" d="M187,10.4h-14.7V.8h41.9v9.6h-14.7v44.9h-12.4V10.4Z"/>
      <path class="cls-1" d="M225.7.8h35.5v9.6h-23.3v12.7h18.6v9h-18.6v13.6h24.5v9.6h-36.8V.8Z"/>
      <path class="cls-1" d="M274.9.8h19.5c12.9,0,21.1,5.3,21.1,16.6v.3c0,8.2-4.8,12.6-11.2,14.5l14.4,23.2h-13.1l-13-21.1h-5.3v21.1h-12.3V.8ZM294.1,25.9c6.2,0,9.3-2.6,9.3-7.9v-.3c0-5.6-3.4-7.5-9.3-7.5h-6.9v15.6h6.9Z"/>
      <path class="cls-1" d="M343.6.8h16.1l17.7,54.5h-12.9l-3.7-12.1h-19.8l-3.7,12.1h-11.6L343.6.8ZM343.7,34.4h14.4l-7.2-23.6-7.2,23.6Z"/>
      <path class="cls-1" d="M388.7.8h14.3l20.7,35.9V.8h11v54.5h-12.4l-22.7-38.8v38.8h-11V.8Z"/>
      <path class="cls-1" d="M446.9,38.2h11.8c.5,4.9,2.6,8.9,10.7,8.9s9-3,9-7.2-2.3-5.9-10.3-7.1c-14-1.8-19.7-6-19.7-16.6s7.8-16.2,19.8-16.2,19.5,5.5,20.4,16.3h-11.4c-.8-5-3.7-7.2-9.1-7.2s-8.2,2.5-8.2,6.2,1.8,5.7,10.1,6.9c13.2,1.7,20,5.3,20,16.6s-7.9,17.4-20.8,17.4-21.8-7-22.5-17.9Z"/>
    </g>
  </g>
</svg>